<?xml version="1.0" encoding="UTF-8" standalone="no"?>
<!-- Uploaded to: SVG Repo, www.svgrepo.com, Transformed by: SVG Repo Mixer Tools -->

<svg
   fill="#000000"
   height="800px"
   width="800px"
   version="1.1"
   id="Capa_1"
   viewBox="0 0 459.763 459.763"
   xml:space="preserve"
   sodipodi:docname="cruise-on-sea-svgrepo-com.svg"
   inkscape:version="1.4 (e7c3feb1, 2024-10-09)"
   xmlns:inkscape="http://www.inkscape.org/namespaces/inkscape"
   xmlns:sodipodi="http://sodipodi.sourceforge.net/DTD/sodipodi-0.dtd"
   xmlns="http://www.w3.org/2000/svg"
   xmlns:svg="http://www.w3.org/2000/svg"><defs
   id="defs9">           </defs><sodipodi:namedview
   id="namedview9"
   pagecolor="#ffffff"
   bordercolor="#000000"
   borderopacity="0.25"
   inkscape:showpageshadow="2"
   inkscape:pageopacity="0.0"
   inkscape:pagecheckerboard="0"
   inkscape:deskcolor="#d1d1d1"
   inkscape:zoom="1.1525"
   inkscape:cx="218.22126"
   inkscape:cy="437.3102"
   inkscape:window-width="3008"
   inkscape:window-height="1639"
   inkscape:window-x="0"
   inkscape:window-y="25"
   inkscape:window-maximized="1"
   inkscape:current-layer="Capa_1" />

<g
   id="SVGRepo_bgCarrier"
   stroke-width="0"
   inkscape:label="SVGRepo_bgCarrier" />

<g
   id="SVGRepo_tracerCarrier"
   stroke-linecap="round"
   stroke-linejoin="round" />

<g
   id="SVGRepo_iconCarrier"> <path
   d="m 36.852,303.438 c 6.911,-6.473 17.737,-6.473 24.648,0 9.978,9.345 25.609,9.345 35.586,0 6.912,-6.472 17.738,-6.472 24.649,0 9.977,9.345 25.609,9.345 35.586,0 6.911,-6.473 17.737,-6.473 24.648,0 9.979,9.346 25.61,9.345 35.587,0 6.911,-6.472 17.738,-6.473 24.649,0 9.977,9.345 25.607,9.345 35.586,0 6.911,-6.472 17.738,-6.474 24.649,0 4.989,4.673 11.39,7.009 17.793,7.009 6.401,-10e-4 12.805,-2.337 17.793,-7.009 6.911,-6.472 17.737,-6.472 24.648,0 9.979,9.345 25.61,9.345 35.587,0 6.909,-6.472 17.737,-6.473 24.648,0 9.979,9.346 25.61,9.345 35.586,0 1.612,-1.51 1.695,-4.042 0.185,-5.654 -1.51,-1.612 -4.042,-1.695 -5.653,-0.185 -6.909,6.472 -17.737,6.473 -24.648,0 -0.976,-0.914 -2.02,-1.712 -3.094,-2.448 l 30.205,-34.592 c 1.032,-1.182 1.278,-2.857 0.629,-4.286 -0.648,-1.428 -2.073,-2.345 -3.642,-2.345 h -33.05 l -27.159,-35.334 c -0.758,-0.985 -1.93,-1.562 -3.172,-1.562 h -2.271 l -10.021,-19.209 c -0.689,-1.321 -2.057,-2.15 -3.547,-2.15 h -9.583 l -10.02,-19.209 c -0.689,-1.321 -2.057,-2.15 -3.547,-2.15 h -12.741 l -10.02,-19.209 c -0.689,-1.322 -2.057,-2.15 -3.547,-2.15 H 188.126 c -2.209,0 -4,1.791 -4,4 v 17.359 H 149.407 V 118.12 c 0,-2.209 -1.791,-4 -4,-4 H 95.893 c -2.209,0 -4,1.791 -4,4 v 56.194 H 45.29 c -2.209,0 -4,1.791 -4,4 v 17.359 h -4.817 c -2.209,0 -4,1.791 -4,4 v 17.359 h -5.427 c -2.209,0 -4,1.791 -4,4 v 19.306 h -5.079 c -1.869,0 -3.489,1.294 -3.901,3.117 l -6.449,28.494 c -0.18,0.795 -0.113,1.626 0.193,2.383 l 11.368,28.117 c -4.474,0.029 -8.957,-1.584 -12.444,-4.849 -1.612,-1.51 -4.144,-1.427 -5.654,0.185 -1.51,1.612 -1.427,4.144 0.185,5.654 9.979,9.344 25.61,9.343 35.587,-0.001 z M 192.126,160.955 h 129.249 l 6.968,13.359 H 192.126 Z M 141.407,122.12 v 10.447 H 99.893 V 122.12 Z m -41.514,18.446 h 41.514 v 33.747 H 99.893 Z M 49.29,182.314 h 298.393 l 6.968,13.359 H 49.29 Z m -8.817,21.359 h 330.36 l 6.969,13.359 H 40.473 Z m -9.427,21.359 h 356.08 l 22.21,28.896 h -27.577 l -21.136,-12.997 c -0.631,-0.388 -1.355,-0.593 -2.096,-0.593 H 31.046 Z m -15.35,47.461 5.467,-24.155 h 336.232 l 21.136,12.997 c 0.631,0.388 1.355,0.593 2.096,0.593 h 63.048 l -25.904,29.666 c -8.545,-2.435 -18.103,-0.435 -24.977,6.004 -6.91,6.473 -17.739,6.472 -24.649,0 -9.977,-9.345 -25.609,-9.345 -35.586,0 -6.911,6.472 -17.738,6.474 -24.649,0 -9.978,-9.345 -25.608,-9.345 -35.586,0 -6.91,6.473 -17.738,6.473 -24.648,0 -9.979,-9.345 -25.608,-9.344 -35.586,0 -6.911,6.473 -17.737,6.474 -24.649,0 -9.978,-9.345 -25.609,-9.345 -35.586,0 -6.911,6.473 -17.737,6.473 -24.649,0 -9.978,-9.345 -25.609,-9.344 -35.586,0 -6.911,6.473 -17.738,6.473 -24.649,0 -9.977,-9.345 -25.608,-9.345 -35.586,0 -1.317,1.234 -2.778,2.229 -4.326,2.992 z"
   id="path8" /> </g>

<path
   id="rect9"
   style="fill:#ffffff;stroke-width:4.59763;fill-opacity:1"
   d="M 48.868901 194.97498 L 48.868901 202.95349 L 39.892522 202.95349 L 39.892522 237.61082 L 62.831283 237.61082 L 62.831283 235.61619 L 354.297 235.61619 L 354.297 235.367 L 378.48171 235.367 L 378.48171 215.66993 L 354.297 215.66993 L 354.297 194.97498 L 48.868901 194.97498 z " /></svg>
