<?xml version="1.0" encoding="iso-8859-1"?>
<!-- Uploaded to: SVG Repo, www.svgrepo.com, Generator: SVG Repo Mixer Tools -->
<svg fill="#000000" height="800px" width="800px" version="1.1" id="Layer_1" xmlns="http://www.w3.org/2000/svg" xmlns:xlink="http://www.w3.org/1999/xlink" 
	 viewBox="0 0 484.34 484.34" xml:space="preserve">
<g>
	<g>
		<g>
			<path d="M375.961,374.787c12.616-4.928,19.85-12.021,20.304-12.475l2.197-2.197v-3.106c0-43.912-18.588-172.323-23.76-207.198
				h34.744v-7.5c0-9.73-8.519-47.444-27.472-47.444h-14.477c-8.476-25.022-24.623-47.377-45.923-63.402
				c-9.834-7.399-20.564-13.35-31.96-17.739V0h-94.888v13.726c-11.395,4.388-22.123,10.338-31.942,17.725
				c-21.327,15.946-37.498,38.308-45.977,63.416h-14.44c-18.954,0-27.472,37.713-27.472,47.444v7.5h33.626
				c-5.358,33.219-23.64,150.704-23.64,207.198v3.106l2.197,2.197c0.465,0.465,7.999,7.851,21.099,12.784
				c-61.747,32.097-63.207,74.837-63.239,76.648l-0.001,32.596h394.466v-32.502C439.395,450.01,438.46,406.82,375.961,374.787z
				 M104.854,469.34H59.938v-17.335c0.092-2.061,2.185-31.652,44.916-57.822V469.34z M383.426,353.571
				c-4.49,3.452-15.456,10.43-30.893,10.875c-3.573-1.385-7.539-2.77-12.57-4.389c-0.765-0.407-2.269-1.214-4.299-2.327
				c-16.64-9.168-29.758-17.836-36.063-23.764V309.73c17.795-10.175,32.612-25.372,43.026-44.208
				c11.049-19.984,16.889-43.598,16.889-68.288v-47.423h0.017C363.975,179.761,382.495,307.086,383.426,353.571z M139.827,149.811
				h204.69v47.423c0,44.756-21.402,83.604-55.878,101.396c-13.94,7.257-29.574,10.936-46.467,10.936s-32.526-3.679-46.49-10.948
				c-16.96-8.752-31.083-22.706-40.839-40.353c-9.824-17.768-15.016-38.872-15.016-61.03V149.811z M199.741,316.878
				c13.16,5.098,27.379,7.687,42.43,7.687c15.055,0,29.278-2.59,42.43-7.685v17.268c-5.125,5.357-21.354,20.354-42.43,20.354
				c-20.939,0-37.281-15.027-42.43-20.37V316.878z M242.171,369.502c23.441,0,41.554-13.801,50.189-21.931
				c9.022,7.534,22.44,15.628,32.185,21.131v60.694H159.797v-60.694c9.738-5.499,23.16-13.596,32.185-21.132
				C200.618,355.701,218.73,369.502,242.171,369.502z M324.566,53.866c11.751,11.641,21.003,25.676,26.969,41.001h-26.969V53.866z
				 M289.615,29.974c6.986,3.102,13.66,6.884,19.951,11.318v53.575h-19.951V29.974z M209.727,15h64.888v79.867h-64.888V15z
				 M174.776,41.292c6.291-4.434,12.965-8.216,19.951-11.318v64.893h-19.951V41.292z M159.776,53.814v41.052h-27.011
				C138.734,79.487,148.001,65.435,159.776,53.814z M90.809,134.811c2.283-10.745,8.296-23.627,11.73-24.944h279.264
				c3.434,1.317,9.447,14.199,11.729,24.944H90.809z M99.905,353.565c0.737-57.477,19.232-175.347,23.817-203.754h1.103v47.423
				c0,24.69,5.84,48.304,16.889,68.288c10.418,18.844,25.242,34.045,43.027,44.21v24.234c-6.304,5.927-19.422,14.595-36.05,23.757
				c-2.043,1.121-3.553,1.93-4.317,2.337c-4.693,1.521-8.964,3.079-12.503,4.416C115.845,364.338,104.469,357.077,99.905,353.565z
				 M119.853,385.98c4.771-2.345,9.805-4.554,15.254-6.689c2.679-1.026,6.003-2.274,9.69-3.551v53.656h-24.944V385.98z
				 M364.489,469.34H119.854v-24.944h244.635V469.34z M364.489,429.396h-24.944v-53.685c3.41,1.15,6.266,2.191,8.888,3.24
				l0.192,0.074c5.67,2.089,10.984,4.351,15.864,6.744V429.396z M424.404,469.34h-44.916v-75.429
				c43.36,26.262,44.867,56.291,44.916,58.036V469.34z"/>
			<path d="M242.171,254.663h19.972v-15h-12.472v-32.444h-15v39.944C234.671,251.305,238.029,254.663,242.171,254.663z"/>
		</g>
	</g>
</g>
</svg>